<?xml version="1.0" standalone="no"?>
<!DOCTYPE svg PUBLIC "-//W3C//DTD SVG 20010904//EN"
 "http://www.w3.org/TR/2001/REC-SVG-20010904/DTD/svg10.dtd">
<svg version="1.0" xmlns="http://www.w3.org/2000/svg"
 width="1500.000000pt" height="1500.000000pt" viewBox="0 0 1500.000000 1500.000000"
 preserveAspectRatio="xMidYMid meet">
<metadata>
Created by potrace 1.14, written by Peter Selinger 2001-2017
</metadata>
<g transform="translate(0.000000,1500.000000) scale(0.100000,-0.100000)"
fill="#000000" stroke="none">
<path d="M1367 10719 c-323 -56 -593 -205 -807 -444 -236 -264 -342 -568 -327
-938 9 -230 52 -402 149 -587 122 -236 338 -450 575 -571 341 -174 745 -202
1116 -78 222 74 438 203 605 361 l53 50 -43 46 c-23 26 -112 120 -196 209
l-155 162 -55 -50 c-113 -104 -263 -186 -417 -231 -115 -33 -308 -33 -415 0
-350 109 -567 466 -520 853 23 193 92 333 229 469 68 68 104 95 173 128 205
102 430 104 642 8 111 -51 210 -119 292 -202 l72 -73 178 212 c99 116 187 221
197 233 17 22 17 23 -60 89 -208 179 -488 312 -748 356 -149 25 -389 25 -538
-2z"/>
<path d="M6685 10720 c-150 -27 -260 -62 -390 -125 -271 -130 -495 -347 -624
-602 -142 -283 -172 -674 -76 -1008 113 -396 467 -754 875 -884 327 -104 709
-102 1027 4 323 109 622 364 776 662 104 201 147 383 147 623 0 397 -135 707
-422 975 -190 177 -405 286 -681 347 -139 31 -480 35 -632 8z m495 -570 c124
-35 204 -84 306 -185 104 -103 152 -179 196 -310 26 -76 32 -110 36 -218 6
-152 -8 -251 -50 -360 -85 -222 -286 -406 -508 -464 -88 -23 -263 -23 -350 0
-208 55 -399 211 -495 405 -119 241 -109 561 26 788 46 78 149 186 232 245
169 119 403 157 607 99z"/>
<path d="M3310 9385 l0 -1335 905 0 905 0 0 285 0 285 -565 0 -565 0 0 1050 0
1050 -340 0 -340 0 0 -1335z"/>
<path d="M9000 9943 c0 -826 5 -953 45 -1111 87 -341 347 -619 685 -732 313
-105 743 -99 1042 13 326 123 573 414 647 762 28 132 31 238 31 1026 l0 819
-334 0 -335 0 -3 -832 c-4 -801 -5 -836 -24 -903 -60 -209 -200 -343 -397
-380 -96 -18 -139 -18 -241 0 -164 29 -297 128 -370 275 -65 132 -65 140 -66
1038 l0 802 -340 0 -340 0 0 -777z"/>
<path d="M12210 9385 l0 -1335 558 0 c724 0 882 13 1117 91 251 84 482 248
635 450 74 99 161 275 196 394 110 387 50 835 -153 1145 -70 106 -241 278
-347 350 -177 119 -398 198 -639 230 -47 6 -340 10 -723 10 l-644 0 0 -1335z
m1310 775 c125 -30 218 -80 310 -166 130 -123 204 -260 235 -439 67 -384 -86
-741 -379 -885 -126 -63 -178 -70 -513 -70 l-293 0 0 790 0 790 278 0 c244 0
287 -3 362 -20z"/>
<path d="M6415 6344 c-242 -36 -425 -104 -602 -223 -282 -190 -461 -453 -528
-776 -23 -110 -31 -323 -16 -438 38 -287 141 -502 338 -707 193 -202 409 -322
693 -385 49 -11 143 -18 270 -22 169 -5 212 -2 318 16 302 51 546 181 753 399
179 188 285 402 326 656 19 124 13 382 -12 496 -94 423 -410 768 -840 917
-150 52 -236 65 -460 68 -115 2 -223 1 -240 -1z m426 -561 c259 -85 455 -341
477 -622 14 -172 -10 -317 -73 -443 -89 -178 -238 -309 -409 -364 -395 -124
-804 122 -902 545 -20 85 -20 269 1 355 65 284 295 505 580 556 88 16 233 4
326 -27z"/>
<path d="M2750 6080 l0 -260 375 0 375 0 0 -1005 0 -1005 320 0 320 0 0 1005
0 1005 380 0 380 0 0 260 0 260 -1075 0 -1075 0 0 -260z"/>
<path d="M8580 5070 l0 -1260 623 0 c342 0 678 5 747 10 175 14 310 49 449
117 98 48 126 68 196 137 130 129 180 253 179 446 -1 161 -44 289 -136 405
-88 111 -170 162 -358 222 -8 3 12 14 45 27 220 80 365 291 365 531 0 213
-110 384 -320 498 -91 49 -200 84 -335 107 -109 19 -163 20 -786 20 l-669 0 0
-1260z m1310 744 c49 -23 114 -89 132 -132 16 -42 13 -152 -7 -200 -10 -23
-38 -60 -63 -82 -74 -65 -103 -70 -444 -70 l-298 0 0 256 0 255 318 -3 c297
-3 320 -5 362 -24z m58 -988 c104 -48 163 -131 164 -230 1 -110 -48 -192 -143
-238 -89 -43 -140 -48 -459 -48 l-300 0 0 276 0 275 338 -3 337 -3 63 -29z"/>
<path d="M11400 5070 l0 -1260 320 0 320 0 0 1260 0 1260 -320 0 -320 0 0
-1260z"/>
</g>
</svg>
